<svg width="16" height="17" viewBox="0 0 16 17" fill="none" xmlns="http://www.w3.org/2000/svg">
<path d="M12.6667 6.332H13.3333C13.7015 6.332 14 6.63039 14 6.9985V13.6635C14 14.0316 13.7015 14.33 13.3333 14.33H2.66667C2.29848 14.33 2 14.0316 2 13.6635V6.9985C2 6.63039 2.29848 6.332 2.66667 6.332H3.33333V5.6655C3.33333 3.08882 5.42267 1 8 1C10.5773 1 12.6667 3.08882 12.6667 5.6655V6.332ZM11.3333 6.332V5.6655C11.3333 3.82501 9.84093 2.333 8 2.333C6.15905 2.333 4.66667 3.82501 4.66667 5.6655V6.332H11.3333ZM7.33333 8.998V11.664H8.66667V8.998H7.33333Z" fill="#2C2C2C"/>
</svg>
