<svg width="16" height="17" viewBox="0 0 16 17" fill="none" xmlns="http://www.w3.org/2000/svg">
<path d="M4.66667 6.332H13.3333C13.7015 6.332 14 6.63039 14 6.9985V13.6635C14 14.0316 13.7015 14.33 13.3333 14.33H2.66667C2.29848 14.33 2 14.0316 2 13.6635V6.9985C2 6.63039 2.29848 6.332 2.66667 6.332H3.33333V5.6655C3.33333 3.08882 5.42267 1 8 1C9.827 1 11.4087 2.0496 12.1749 3.57857L10.9821 4.17483C10.4348 3.08272 9.305 2.333 8 2.333C6.15905 2.333 4.66667 3.82501 4.66667 5.6655V6.332ZM3.33333 7.665V12.997H12.6667V7.665H3.33333ZM6.66667 9.6645H9.33333V10.9975H6.66667V9.6645Z" fill="black"/>
</svg>
